<svg width="83" height="85" viewBox="0 0 83 85" fill="none" xmlns="http://www.w3.org/2000/svg">
<rect width="83" height="85" rx="41.5" fill="#1E5AFA"/>
<path d="M36.9545 41.5227L32.5227 41.7955C32.447 41.4167 32.2841 41.0758 32.0341 40.7727C31.7841 40.4621 31.4545 40.2159 31.0455 40.0341C30.6439 39.8447 30.1629 39.75 29.6023 39.75C28.8523 39.75 28.2197 39.9091 27.7045 40.2273C27.1894 40.5379 26.9318 40.9545 26.9318 41.4773C26.9318 41.8939 27.0985 42.2462 27.4318 42.5341C27.7652 42.822 28.3371 43.053 29.1477 43.2273L32.3068 43.8636C34.0038 44.2121 35.2689 44.7727 36.1023 45.5455C36.9356 46.3182 37.3523 47.3333 37.3523 48.5909C37.3523 49.7348 37.0152 50.7386 36.3409 51.6023C35.6742 52.4659 34.7576 53.1402 33.5909 53.625C32.4318 54.1023 31.0947 54.3409 29.5795 54.3409C27.2689 54.3409 25.428 53.8598 24.0568 52.8977C22.6932 51.928 21.8939 50.6098 21.6591 48.9432L26.4205 48.6932C26.5644 49.3977 26.9129 49.9356 27.4659 50.3068C28.0189 50.6705 28.7273 50.8523 29.5909 50.8523C30.4394 50.8523 31.1212 50.6894 31.6364 50.3636C32.1591 50.0303 32.4242 49.6023 32.4318 49.0795C32.4242 48.6402 32.2386 48.2803 31.875 48C31.5114 47.7121 30.9508 47.4924 30.1932 47.3409L27.1705 46.7386C25.4659 46.3977 24.197 45.8068 23.3636 44.9659C22.5379 44.125 22.125 43.053 22.125 41.75C22.125 40.6288 22.428 39.6629 23.0341 38.8523C23.6477 38.0417 24.5076 37.4167 25.6136 36.9773C26.7273 36.5379 28.0303 36.3182 29.5227 36.3182C31.7273 36.3182 33.4621 36.7841 34.7273 37.7159C36 38.6477 36.7424 39.9167 36.9545 41.5227ZM40.4915 54V30.7273H45.4119V40.3295H55.4006V30.7273H60.3097V54H55.4006V44.3864H45.4119V54H40.4915Z" fill="white"/>
</svg>
