<svg width="24" height="27" viewBox="0 0 24 27" fill="none" xmlns="http://www.w3.org/2000/svg">
<g clip-path="url(#clip0_66_958)">
<path d="M11.2083 12.6484L0.0996094 24.287C0.224359 24.7291 0.448539 25.1368 0.755011 25.479C1.06148 25.8211 1.44213 26.0887 1.86786 26.2612C2.2936 26.4338 2.75314 26.5067 3.21136 26.4744C3.66958 26.4421 4.11435 26.3054 4.51167 26.0749L17.0111 18.9561L11.2083 12.6484Z" fill="#EA4335"/>
<path d="M22.441 10.67L17.0358 7.57404L10.9517 12.9131L17.0606 18.9393L22.4246 15.8765C22.8998 15.6277 23.2978 15.2536 23.5755 14.7947C23.8532 14.3358 24 13.8096 24 13.2732C24 12.7368 23.8532 12.2107 23.5755 11.7518C23.2978 11.2929 22.8998 10.9188 22.4246 10.6699H22.4412L22.441 10.67Z" fill="#FBBC04"/>
<path d="M0.099406 2.2019C0.03226 2.45014 -0.0011651 2.70628 3.0997e-05 2.96344V23.5253C0.000727169 23.7824 0.0341202 24.0383 0.099406 24.287L11.5889 12.9464L0.099406 2.2019Z" fill="#4285F4"/>
<path d="M11.2911 13.2444L17.0359 7.57416L4.55311 0.422162C4.08345 0.147106 3.54929 0.00144212 3.00502 5.74972e-06C1.65436 -0.00261925 0.466922 0.893818 0.0996094 2.19366L11.2911 13.2444Z" fill="#34A853"/>
</g>
<defs>
<clipPath id="clip0_66_958">
<rect width="24" height="26.5312" fill="white"/>
</clipPath>
</defs>
</svg>
