<svg width="40" height="40" viewBox="0 0 40 40" fill="none" xmlns="http://www.w3.org/2000/svg">
<path d="M19.9998 28.3332C17.6943 28.3332 15.7287 27.5204 14.1032 25.8948C12.4776 24.2693 11.6654 22.3043 11.6665 19.9998C11.6665 17.6943 12.4793 15.7287 14.1048 14.1032C15.7304 12.4776 17.6954 11.6654 19.9998 11.6665C22.3054 11.6665 24.271 12.4793 25.8965 14.1048C27.5221 15.7304 28.3343 17.6954 28.3332 19.9998C28.3332 22.3054 27.5204 24.271 25.8948 25.8965C24.2693 27.5221 22.3043 28.3343 19.9998 28.3332ZM3.33318 21.6665C2.86095 21.6665 2.46484 21.5065 2.14484 21.1865C1.82484 20.8665 1.6654 20.471 1.66651 19.9998C1.66651 19.5276 1.82651 19.1315 2.14651 18.8115C2.46651 18.4915 2.86207 18.3321 3.33318 18.3332H6.66651C7.13873 18.3332 7.53484 18.4932 7.85484 18.8132C8.17484 19.1332 8.33429 19.5287 8.33318 19.9998C8.33318 20.4721 8.17318 20.8682 7.85318 21.1882C7.53318 21.5082 7.13762 21.6676 6.66651 21.6665H3.33318ZM33.3332 21.6665C32.861 21.6665 32.4648 21.5065 32.1448 21.1865C31.8248 20.8665 31.6654 20.471 31.6665 19.9998C31.6665 19.5276 31.8265 19.1315 32.1465 18.8115C32.4665 18.4915 32.8621 18.3321 33.3332 18.3332H36.6665C37.1387 18.3332 37.5348 18.4932 37.8548 18.8132C38.1748 19.1332 38.3343 19.5287 38.3332 19.9998C38.3332 20.4721 38.1732 20.8682 37.8532 21.1882C37.5332 21.5082 37.1376 21.6676 36.6665 21.6665H33.3332ZM19.9998 8.33318C19.5276 8.33318 19.1315 8.17318 18.8115 7.85318C18.4915 7.53318 18.3321 7.13762 18.3332 6.66651V3.33318C18.3332 2.86095 18.4932 2.46484 18.8132 2.14484C19.1332 1.82484 19.5287 1.6654 19.9998 1.66651C20.4721 1.66651 20.8682 1.82651 21.1882 2.14651C21.5082 2.46651 21.6676 2.86207 21.6665 3.33318V6.66651C21.6665 7.13873 21.5065 7.53484 21.1865 7.85484C20.8665 8.17484 20.471 8.33429 19.9998 8.33318ZM19.9998 38.3332C19.5276 38.3332 19.1315 38.1732 18.8115 37.8532C18.4915 37.5332 18.3321 37.1376 18.3332 36.6665V33.3332C18.3332 32.861 18.4932 32.4648 18.8132 32.1448C19.1332 31.8248 19.5287 31.6654 19.9998 31.6665C20.4721 31.6665 20.8682 31.8265 21.1882 32.1465C21.5082 32.4665 21.6676 32.8621 21.6665 33.3332V36.6665C21.6665 37.1387 21.5065 37.5348 21.1865 37.8548C20.8665 38.1748 20.471 38.3343 19.9998 38.3332ZM9.41651 11.7498L7.62484 9.99984C7.29151 9.69429 7.13151 9.3054 7.14484 8.83318C7.15818 8.36095 7.31818 7.95818 7.62484 7.62484C7.95818 7.29151 8.36095 7.12484 8.83318 7.12484C9.3054 7.12484 9.69429 7.29151 9.99984 7.62484L11.7498 9.41651C12.0554 9.74984 12.2082 10.1387 12.2082 10.5832C12.2082 11.0276 12.0554 11.4165 11.7498 11.7498C11.4443 12.0832 11.0626 12.2432 10.6048 12.2298C10.1471 12.2165 9.75095 12.0565 9.41651 11.7498ZM29.9998 32.3748L28.2498 30.5832C27.9443 30.2498 27.7915 29.8537 27.7915 29.3948C27.7915 28.936 27.9443 28.5543 28.2498 28.2498C28.5554 27.9165 28.9376 27.7571 29.3965 27.7715C29.8554 27.786 30.251 27.9454 30.5832 28.2498L32.3748 29.9998C32.7082 30.3054 32.8682 30.6943 32.8548 31.1665C32.8415 31.6387 32.6815 32.0415 32.3748 32.3748C32.0415 32.7082 31.6387 32.8748 31.1665 32.8748C30.6943 32.8748 30.3054 32.7082 29.9998 32.3748ZM28.2498 11.7498C27.9165 11.4443 27.7565 11.0626 27.7698 10.6048C27.7832 10.1471 27.9432 9.75095 28.2498 9.41651L29.9998 7.62484C30.3054 7.29151 30.6943 7.13151 31.1665 7.14484C31.6387 7.15818 32.0415 7.31818 32.3748 7.62484C32.7082 7.95818 32.8748 8.36095 32.8748 8.83318C32.8748 9.3054 32.7082 9.69429 32.3748 9.99984L30.5832 11.7498C30.2498 12.0554 29.861 12.2082 29.4165 12.2082C28.9721 12.2082 28.5832 12.0554 28.2498 11.7498ZM7.62484 32.3748C7.29151 32.0415 7.12484 31.6387 7.12484 31.1665C7.12484 30.6943 7.29151 30.3054 7.62484 29.9998L9.41651 28.2498C9.74984 27.9443 10.1454 27.7915 10.6032 27.7915C11.061 27.7915 11.4432 27.9443 11.7498 28.2498C12.0832 28.5554 12.2432 28.9376 12.2298 29.3965C12.2165 29.8554 12.0565 30.251 11.7498 30.5832L9.99984 32.3748C9.69429 32.7082 9.3054 32.8682 8.83318 32.8548C8.36095 32.8415 7.95818 32.6815 7.62484 32.3748Z" fill="#F8F8F8"/>
</svg>
