<svg width="36" height="36" viewBox="0 0 36 36" fill="none" xmlns="http://www.w3.org/2000/svg">
<g clip-path="url(#clip0_111_1001)">
<path d="M30.0002 17H19.0002V6C19.0002 5.73478 18.8948 5.48043 18.7073 5.29289C18.5197 5.10536 18.2654 5 18.0002 5C17.735 5 17.4806 5.10536 17.2931 5.29289C17.1055 5.48043 17.0002 5.73478 17.0002 6V17H6.00017C5.73495 17 5.4806 17.1054 5.29306 17.2929C5.10552 17.4804 5.00017 17.7348 5.00017 18C4.99523 18.13 5.01821 18.2595 5.06756 18.3798C5.11691 18.5001 5.19148 18.6085 5.28624 18.6976C5.38101 18.7867 5.49377 18.8544 5.61692 18.8962C5.74007 18.938 5.87076 18.953 6.00017 18.94H17.0002V30C17.0002 30.2652 17.1055 30.5196 17.2931 30.7071C17.4806 30.8946 17.735 31 18.0002 31C18.2654 31 18.5197 30.8946 18.7073 30.7071C18.8948 30.5196 19.0002 30.2652 19.0002 30V19H30.0002C30.2654 19 30.5197 18.8946 30.7073 18.7071C30.8948 18.5196 31.0002 18.2652 31.0002 18C31.0002 17.7348 30.8948 17.4804 30.7073 17.2929C30.5197 17.1054 30.2654 17 30.0002 17Z" fill="#000F37"/>
</g>
<defs>
<clipPath id="clip0_111_1001">
<rect width="36" height="36" fill="white"/>
</clipPath>
</defs>
</svg>
